@startuml
skinparam classAttributeIconSize 0

package src{
    package model{
        package enums{
            enum Couleur{
                ..Values..
                ABSENT
                BLEU
                JAUNE
                ROUGE
                VERT
                ORANGE
                VIOLET
                TURQUOISE
                ROSE
                ..Mehtods..
                + getVraiesCouleurs() : Couleur[] {static}
                + nomValide(couleur : Couleur) : String
            }
            enum Indice{
                ..Values..
                BIEN_PLACE
                MAL_PLACE
                ABSENT
                ..Methods..
                + nomValide(indice : Indice) : String
            }
        }
        package modesJeu{
            interface ModeJeu <<interface>>{
                ..Methods..
                afficherIndices(ligne : LigneIndice)
            }
            interface Classique <<interface>>
            interface Facile <<interface>>
            interface Numerique <<interface>>
        }
        package observers{
            interface ObservateurManche <<interface>>{
                ..Methods..
                + miseEnPlacePlateau()
                + demanderValidationTentative() : Boolean
                + prochaineManche(combinaisonSecrete : Combinaison)
            }
            interface ObservateurPartie <<interface>>{
                ..Methods..
                + entrerModeInitialisation()
                + creerJoueur() : Joueur
                + deciderNbManches() : Integer
                + deciderTailleCombinaison() : Integer
                + deciderNbTentatives() : Integer
                + deciderModeJeu() : ModeJeu
                + demanderFinInitialisation()
                + finirPartie()
            }
            interface ObservateurTentative <<interface>>{
                ..Methods..
                + changerCouleur(combinaison : Combinaison)
                + afficherIndices(indices : LigneIndice)
                + affichageTentative(combinaison : Combinaison)
                + demanderFinTentative() : Boolean
                + finirManche()
                + affichageCombinaison(combinaison : Combinaison)
            }
            interface ObservateurUI <<interface>>
        }
        class Combinaison{
            ..Fields..
            - tailleCombi : Integer
            ..Constructors..
            + <<create>> Combinaison()
            + <<create>> Combinaison(tailleCombi : Integer)
            ..Methods..
            + genererCombinaison(taille : Integer) : Combinaison {static}
            + getCombinaison() : Couleur[]
            + setCouleur(index : Integer, couleur : Couleur)
            + getTailleCombinaison() : Integer
            + estComplete() : Boolean
        }
        class Joueur{
            ..Fields..
            - nom : String
            - score : Integer[]
            ..Methods..
            + <<create>> Joueur(nom : String)
            + getNom() : String
            + getScores() : Integer[]
            + ajouterScorePartie(score : Integer)
        }
        class LigneIndice{
            ..Fields..
            - tailleCombi : Integer
            ..Constructors..
            + <<create>> LigneIndice()
            + <<create>> LigneIndice(tailleCombi : Integer)
            ..Methods..
            + getTailleCombinaison() : Integer
            + getIntIndices() : Integer[]
            + getIndices() : Indice[]
            + calculerScore() : Integer
        }
        class Manche{
            ..Fields..
            - tentativeActuelle : Integer
            - nbTentatives : Integer
            ..Constructors..
            + <<create>> Manche(jeu : GestionnaireJeu)
            + <<create>> Manche(observateur : ObservateurUI, nbTentatives : Integer, tailleCombinaison : Integer, modeJeu : ModeJeu)
            ..Methods..
            + jouerManche()
            + calculerScore() : Integer
            + getObservateurUI() : ObservateurUI
            + setObservateurUI(observateur : ObservateurUI)
            + getCombinaisonSecrete() : Combinaison
            + setCombinaisonSecrete(combinaisonSecrete : Combinaison)
            + getNbTentatives() : Integer
            + setNbTentatives(nbTentatives : Integer)
            + getTentativeActuelle() : Integer
            + getTentatives() : Tentative[]
            + getGestionnaireJeu() : GestionnaireJeu
            + setGestionnaireJeu(jeu : GestionnaireJeu)
        }
        class Partie{
            ..Fields..
            - score : Integer
            - mancheActuelle : Integer
            ..Constructor..
            + <<create>> Partie(jeu : GestionnaireJeu)
            ..Methods..
            + initialiser()
            + lancerProchaineManche()
            + finirPartie()
            + getManches() : Manche[]
            + setNbManches(n : Integer)
            + getScore() : Integer
            + setScore(score : Integer)
            + getJoueur() : Joueur
            + setJoueur(joueur : Joueur)
            + getUI() : ObservateurUI
            + setObservateurUI(observateur : ObservateurUI)
            + getGestionnaireJeu() : GestionnaireJeu
            + setGestionnaireJeu(jeu : GestionnaireJeu)
        }
        class Tentative{
            ..Constructors..
            + <<create>> Tentative(jeu : GestionnaireJeu)
            + <<create>> Tentative(observateur : ObservateurUI, tailleCombinaison : Integer, modeJeu : ModeJeu)
            ..Methods..
            + ajoutCouleur(index : Integer, couleur : Couleur)
            + calculBonus() : Integer
            + calculScore() : Integer
            + evaluerTentative(combinaisonSecrete : Combinaison) : Boolean
            + jouerTentative()
            + getObservateurUI() : ObservateurUI
            + setObservateurUI(observateur : ObservateurUI)
            + getCombinaisonEntree() : Combinaison
            + getLigneIndice() : LigneIndice
            + getModeJeu() : ModeJeu
            + setModeJeu(modeJeu : ModeJeu)
            + setTailleCombinaison(tailleCombinaison : Integer)
            + getGestionnaireJeu() : GestionnaireJeu
            + setGestionnaireJeu(jeu : GestionnaireJeu)
        }
    }
    package view{
        package modesJeu{
            class FacileFenetre{
                ..Methods..
                afficherIndices(ligne : LigneIndice)
            }
            class FacileConsole{
                ..Methods..
                afficherIndices(ligne : LigneIndice)
            }
            class ClassiqueFenetre{
                ..Methods..
                afficherIndices(ligne : LigneIndice)
            }
            class ClassiqueConsole{
                ..Methods..
                afficherIndices(ligne : LigneIndice)
            }
            class NumeriqueFenetre{
                ..Methods..
                afficherIndices(ligne : LigneIndice)
            }
            class NumeriqueConsole{
                ..Methods..
                afficherIndices(ligne : LigneIndice)
            }
        }
        class AffichageConsole{
            ..Constructor..
            + <<create>> AffichageFenetre(jeu : GestionnaireJeu)
            ..Partie..
            + initialiser()
            + lancerProchaineManche()
            + finirPartie()
            + getManches() : Manche[]
            + setNbManches(n : Integer)
            + getScore() : Integer
            + setScore(score : Integer)
            + getJoueur() : Joueur
            + setJoueur(joueur : Joueur)
            + getUI() : ObservateurUI
            + setObservateurUI(observateur : ObservateurUI)
            + getGestionnaireJeu() : GestionnaireJeu
            + setGestionnaireJeu(jeu : GestionnaireJeu)
            ..Manche..
            + jouerManche()
            + calculerScore() : Integer
            + getObservateurUI() : ObservateurUI
            + setObservateurUI(observateur : ObservateurUI)
            + getCombinaisonSecrete() : Combinaison
            + setCombinaisonSecrete(combinaisonSecrete : Combinaison)
            + getNbTentatives() : Integer
            + setNbTentatives(nbTentatives : Integer)
            + getTentativeActuelle() : Integer
            + getTentatives() : Tentative[]
            + getGestionnaireJeu() : GestionnaireJeu
            + setGestionnaireJeu(jeu : GestionnaireJeu)
            ..Tentative..
            + ajoutCouleur(index : Integer, couleur : Couleur)
            + calculBonus() : Integer
            + calculScore() : Integer
            + evaluerTentative(combinaisonSecrete : Combinaison) : Boolean
            + jouerTentative()
            + getObservateurUI() : ObservateurUI
            + setObservateurUI(observateur : ObservateurUI)
            + getCombinaisonEntree() : Combinaison
            + getLigneIndice() : LigneIndice
            + getModeJeu() : ModeJeu
            + setModeJeu(modeJeu : ModeJeu)
            + setTailleCombinaison(tailleCombinaison : Integer)
            + getGestionnaireJeu() : GestionnaireJeu
            + setGestionnaireJeu(jeu : GestionnaireJeu)
        }
        class AffichageFenetre{
            ..Constructor..
            + <<create>> AffichageFenetre(jeu : GestionnaireJeu)
            ..Partie..
            + initialiser()
            + lancerProchaineManche()
            + finirPartie()
            + getManches() : Manche[]
            + setNbManches(n : Integer)
            + getScore() : Integer
            + setScore(score : Integer)
            + getJoueur() : Joueur
            + setJoueur(joueur : Joueur)
            + getUI() : ObservateurUI
            + setObservateurUI(observateur : ObservateurUI)
            + getGestionnaireJeu() : GestionnaireJeu
            + setGestionnaireJeu(jeu : GestionnaireJeu)
            ..Manche..
            + jouerManche()
            + calculerScore() : Integer
            + getObservateurUI() : ObservateurUI
            + setObservateurUI(observateur : ObservateurUI)
            + getCombinaisonSecrete() : Combinaison
            + setCombinaisonSecrete(combinaisonSecrete : Combinaison)
            + getNbTentatives() : Integer
            + setNbTentatives(nbTentatives : Integer)
            + getTentativeActuelle() : Integer
            + getTentatives() : Tentative[]
            + getGestionnaireJeu() : GestionnaireJeu
            + setGestionnaireJeu(jeu : GestionnaireJeu)
            ..Tentative..
            + ajoutCouleur(index : Integer, couleur : Couleur)
            + calculBonus() : Integer
            + calculScore() : Integer
            + evaluerTentative(combinaisonSecrete : Combinaison) : Boolean
            + jouerTentative()
            + getObservateurUI() : ObservateurUI
            + setObservateurUI(observateur : ObservateurUI)
            + getCombinaisonEntree() : Combinaison
            + getLigneIndice() : LigneIndice
            + getModeJeu() : ModeJeu
            + setModeJeu(modeJeu : ModeJeu)
            + setTailleCombinaison(tailleCombinaison : Integer)
            + getGestionnaireJeu() : GestionnaireJeu
            + setGestionnaireJeu(jeu : GestionnaireJeu)
        }
    }
    package controller{
        class GestionnaireJeu{
            ..Methods..
            + setPartie(partie : Partie)
            + setUI(ObservateurUI : ui)
            + initialiserPartie()
            + demarrerProchaineManche()
            + miseAJourTailleCombinaison(n : Integer)
            + miseAJourModeJeu(mode : ModeJeu)
            + miseAJourJoueur(joueur : Joueur)
            + modifierTentativeActuelle(modificationVoulue : Boolean)
            + passerProchaineTentative()
            + getCombinaisonActuelle() : Combinaison
        }
    }
}

src.controller.GestionnaireJeu o--> src.model.Partie : <<joue avec>>


src.model.Combinaison "1" o--> "4..6\n- combinaison" src.model.enums.Couleur : <<est représenté avec>>

src.model.LigneIndice "1" o--> "4..6\n- indices" src.model.enums.Indice : <<est représenté avec>>

src.model.Manche "1" o--> "10..12\n- tentatives" src.model.Tentative : <<est composé de>>
src.model.Manche "1" o--> "1\n- combinaison" src.model.Combinaison : <<cache>>
src.model.Manche "1" o-> "1\n- observateur" src.model.observers.ObservateurManche : <<s'affiche avec>>


src.model.modesJeu.ModeJeu ..> src.model.LigneIndice : <<utilises>>
src.model.modesJeu.ModeJeu <|.. src.model.modesJeu.Classique
src.model.modesJeu.ModeJeu <|.. src.model.modesJeu.Facile
src.model.modesJeu.ModeJeu <|.. src.model.modesJeu.Numerique

src.model.modesJeu.Facile <|.. src.view.modesJeu.FacileConsole
src.model.modesJeu.Facile <|.. src.view.modesJeu.FacileFenetre

src.model.modesJeu.Classique <|.. src.view.modesJeu.ClassiqueConsole
src.model.modesJeu.Classique <|.. src.view.modesJeu.ClassiqueFenetre

src.model.modesJeu.Numerique <|.. src.view.modesJeu.NumeriqueConsole
src.model.modesJeu.Numerique <|.. src.view.modesJeu.NumeriqueFenetre

src.model.observers.ObservateurPartie <|.. src.model.observers.ObservateurUI
src.model.observers.ObservateurUI .l|> src.model.observers.ObservateurManche
src.model.observers.ObservateurUI ..|> src.model.observers.ObservateurTentative


src.model.Partie "1" o-l> "1\n- joueur" src.model.Joueur : <<joue la partie>>
src.model.Partie "1" o--> "3..5\n- manches" src.model.Manche : <<est composé de>>
src.model.Partie "1" o-> "1\n- observateur" src.model.observers.ObservateurPartie : <<s'affiche avec>>
src.model.Partie .> src.model.ModeJeu : <<utilise>>

src.model.Tentative "1" o--> "1\n- combinaisonEntree" src.model.Combinaison : <<est définie par>>
src.model.Tentative "1" o--> "1\n- ligneIndice" src.model.LigneIndice : <<donne les indices>>
src.model.Tentative "1" o-> "1\n- modeJeu" src.model.ModeJeu : <<défini l'affichage des indices>>
src.model.Tentative "1" o-> "1\n- observateur" src.model.observers.ObservateurTentative : <<s'affiche avec>>



src.view.AffichageConsole ..|> src.model.observers.ObservateurUI
src.view.AffichageConsole o--> src.model.modesJeu.ModeJeu

src.view.AffichageFenetre ..|> src.model.observers.ObservateurUI
src.view.AffichageFenetre o--> src.model.modesJeu.ModeJeu

@enduml